<svg width="48" height="48" viewBox="0 0 48 48" fill="none" xmlns="http://www.w3.org/2000/svg">
<path d="M6 19.0315C6 14.4711 6 12.1909 6.88752 10.449C7.6682 8.91685 8.9139 7.67115 10.4461 6.89046C12.1879 6.00294 14.4681 6.00294 19.0286 6.00294H28.9714C33.5319 6.00294 35.8121 6.00294 37.5539 6.89046C39.0861 7.67115 40.3318 8.91685 41.1125 10.449C42 12.1909 42 14.4711 42 19.0315V28.9744C42 33.5348 42 35.815 41.1125 37.5569C40.3318 39.089 39.0861 40.3347 37.5539 41.1154C35.8121 42.0029 33.5319 42.0029 28.9714 42.0029H19.0286C14.4681 42.0029 12.1879 42.0029 10.4461 41.1154C8.9139 40.3347 7.6682 39.089 6.88752 37.5569C6 35.815 6 33.5348 6 28.9744V19.0315Z" fill="#B30B00"/>
<path d="M34.3373 26.4427C32.6564 24.5995 28.0758 25.4059 26.9692 25.5211C25.4003 23.9083 24.2937 22.0795 23.8455 21.3883C24.4058 19.6603 24.854 17.7163 24.854 15.8731C24.854 14.1451 24.1817 12.4315 22.4027 12.4315C21.7303 12.4315 21.17 12.7771 20.8338 13.3531C20.0494 14.7355 20.3856 17.4859 21.6182 20.3515C20.9459 22.4251 19.8252 25.5211 18.4945 27.9259C16.7015 28.6171 12.7933 30.4459 12.4571 32.5195C12.3451 33.0955 12.5692 33.7867 13.0175 34.1323C13.4657 34.5931 14.026 34.7083 14.5863 34.7083C16.9256 34.7083 19.2789 31.3819 20.9599 28.3867C22.3046 27.9259 24.4198 27.2347 26.549 26.8891C29.0003 29.1931 31.2416 29.5243 32.3622 29.5243C33.9311 29.5243 34.4914 28.8331 34.7015 28.2571C34.9957 27.7099 34.7855 26.9035 34.3373 26.4427ZM32.7684 27.5947C32.6564 28.0555 32.0961 28.5163 31.0875 28.2859C29.8548 27.9403 28.7482 27.3643 27.8517 26.5579C28.6361 26.4427 30.5272 26.2123 31.8719 26.4427C32.3202 26.5579 32.8805 26.9035 32.7684 27.5947ZM21.9264 13.8139C22.0385 13.5835 22.2626 13.4683 22.4867 13.4683C23.047 13.4683 23.1591 14.1595 23.1591 14.7355C23.047 16.1179 22.8229 17.6011 22.3747 18.8683C21.4782 16.3483 21.5902 14.5051 21.9264 13.8139ZM21.8143 26.7883C22.3747 25.7515 23.047 23.8075 23.2712 23.1163C23.8315 24.1531 24.84 25.3051 25.2883 25.8667C25.4003 25.7659 23.3832 26.2123 21.8143 26.7883ZM18.0182 29.4379C16.4634 31.9579 15.0066 33.5707 14.1101 33.5707C13.998 33.5707 13.7739 33.5707 13.6618 33.4555C13.5498 33.2251 13.4377 32.9947 13.5498 32.7643C13.6618 31.8427 15.4548 30.5755 18.0182 29.4379Z" fill="white"/>
</svg>
