<svg width="48" height="48" viewBox="0 0 48 48" fill="none" xmlns="http://www.w3.org/2000/svg">
<path fill-rule="evenodd" clip-rule="evenodd" d="M17.8033 20.3065C17.1432 21.2566 16.8131 22.4007 16.8131 23.7409H16.8091C16.8091 25.4291 17.2892 26.7353 18.2493 27.6554C19.2094 28.5755 20.4376 29.0356 21.9298 29.0356C22.8999 29.0356 23.716 28.9395 24.3761 28.7435C25.4222 28.4515 26.4884 27.7154 27.5765 26.5312C27.6545 26.6293 27.7905 26.8173 27.9865 27.1013C28.1786 27.3833 28.3186 27.5694 28.4066 27.6694C28.4926 27.7654 28.6386 27.9214 28.8426 28.1334C29.0467 28.3475 29.2827 28.5715 29.5547 28.8035C29.8848 28.9395 30.1668 28.9195 30.3988 28.7435C30.5349 28.6275 31.407 27.8734 33.0192 26.4732C33.1752 26.3572 33.2512 26.2212 33.2512 26.0672C33.2512 25.9312 33.1932 25.7751 33.0772 25.6011L32.4091 24.713C32.2731 24.529 32.1291 24.229 31.989 23.8089C31.841 23.3949 31.769 22.9348 31.769 22.4287V15.3879C31.769 15.3118 31.761 15.0638 31.741 14.6478C31.721 14.2317 31.693 13.9577 31.653 13.8317C31.617 13.7056 31.557 13.4776 31.477 13.1516C31.401 12.8195 31.317 12.5675 31.2169 12.3915C31.1229 12.2155 30.9889 12.0194 30.8229 11.7954C30.6569 11.5734 30.4789 11.3633 30.2868 11.1693C29.0427 10.0252 27.3165 9.45311 25.1062 9.45311H24.3801C22.6559 9.54912 21.1457 10.0152 19.8555 10.8493C18.5674 11.6834 17.7573 12.9635 17.4272 14.6898C17.4072 14.7678 17.3972 14.8338 17.3972 14.8938C17.3972 15.1658 17.5632 15.3398 17.8913 15.4199L21.2377 15.8279C21.5477 15.7699 21.7418 15.5459 21.8218 15.1578C21.9558 14.5377 22.2558 14.0517 22.7219 13.7016C23.1879 13.3496 23.742 13.1496 24.3821 13.0896H24.6081C25.4822 13.0896 26.1223 13.3816 26.5284 13.9657C26.7984 14.3897 26.9384 15.2258 26.9384 16.466V16.96C25.7543 17.0561 24.8982 17.1321 24.3781 17.1921C22.8459 17.3861 21.5557 17.7061 20.5096 18.1522C19.3635 18.6383 18.4633 19.3563 17.8033 20.3065ZM22.3838 24.977C22.0058 24.517 21.8178 23.9129 21.8178 23.1568L21.8158 23.1588C21.8158 21.4906 22.6679 20.4145 24.3761 19.9304C24.9562 19.7764 25.8103 19.6964 26.9364 19.6964V20.4225C26.9364 21.0426 26.9324 21.4906 26.9224 21.7626C26.9124 22.0347 26.8544 22.3887 26.7484 22.8228C26.6404 23.2588 26.4804 23.6609 26.2683 24.0309C25.8223 24.865 25.1902 25.3871 24.3781 25.6011C24.3381 25.6011 24.2641 25.6111 24.1581 25.6311C24.05 25.6491 23.97 25.6571 23.91 25.6571C23.27 25.6571 22.7639 25.4311 22.3838 24.977Z" fill="#221F1F"/>
<path d="M34.2092 32.292C34.1352 32.37 34.0752 32.4461 34.0352 32.5261V32.5301C34.0152 32.5681 34.0072 32.5961 34.0072 32.6161C33.9872 32.6561 33.9952 32.6921 34.0352 32.7321C34.0752 32.7721 34.1492 32.7921 34.2692 32.7921C34.6753 32.7341 35.1213 32.6781 35.6094 32.6181C36.0534 32.5781 36.4415 32.5581 36.7695 32.5581C37.6636 32.5581 38.2057 32.6761 38.3997 32.9061C38.4757 33.0021 38.5157 33.1581 38.5157 33.3722C38.5157 34.0323 38.1597 35.2044 37.4396 36.8926C37.3816 37.0466 37.4076 37.1526 37.5276 37.2126C37.5636 37.2307 37.6036 37.2407 37.6436 37.2407C37.7216 37.2407 37.8077 37.2046 37.9077 37.1246C38.5637 36.5626 39.0778 35.8185 39.4479 34.8984C39.8159 33.9782 39.9999 33.1781 39.9999 32.4981V32.294C39.9999 32.062 39.9639 31.888 39.8839 31.774C39.7119 31.5579 39.1858 31.4139 38.3117 31.3339C38.1397 31.2959 37.9537 31.2839 37.7596 31.3039C37.0616 31.3239 36.3435 31.4319 35.6094 31.6239C35.1613 31.74 34.6953 31.964 34.2092 32.292Z" fill="#FF9900"/>
<path d="M8.52407 32.0019C8.31004 31.8659 8.15602 31.8759 8.06001 32.0319C8.02 32.0899 8 32.1459 8 32.2059C8 32.3019 8.06001 32.4019 8.17802 32.496C10.3123 34.4162 12.7246 35.9064 15.4249 36.9625C18.1193 38.0186 20.9796 38.5487 24.006 38.5487C25.9662 38.5487 27.9725 38.2747 30.0268 37.7346C32.083 37.1905 33.9452 36.4244 35.6115 35.4343C36.1555 35.1063 36.6016 34.8142 36.9516 34.5622C37.2217 34.3682 37.2757 34.1542 37.1116 33.9221C36.9456 33.6881 36.7176 33.6321 36.4256 33.7481C36.3557 33.7821 36.2442 33.8306 36.0896 33.8977L36.0335 33.9221L35.6135 34.0962C31.907 35.5123 28.1525 36.2224 24.352 36.2224C18.6493 36.2224 13.3727 34.8142 8.52407 32.0019Z" fill="#FF9900"/>
</svg>
