<svg width="48" height="48" viewBox="0 0 48 48" fill="none" xmlns="http://www.w3.org/2000/svg">
<g clip-path="url(#clip0_41_507)">
<rect width="48" height="48" transform="translate(0 0.00393677)" fill="white" fill-opacity="0.01"/>
<path d="M16.676 22.6302C16.138 22.0555 15.2997 22.088 14.934 22.8193L6.11138 40.465C5.94782 40.792 5.96524 41.1803 6.15742 41.4913C6.3496 41.8023 6.68913 41.9916 7.05472 41.9916H19.3415C19.7437 42.0009 20.1136 41.7723 20.2851 41.4084C22.9344 35.9306 21.3293 27.6019 16.676 22.6302Z" fill="url(#paint0_linear_41_507)"/>
<path d="M23.1495 6.5811C18.2149 14.3994 18.5405 23.0584 21.7908 29.5593L27.7153 41.4084C27.894 41.7657 28.2592 41.9914 28.6587 41.9914H40.9453C41.3109 41.9914 41.6504 41.8021 41.8426 41.4911C42.0347 41.1801 42.0522 40.7918 41.8886 40.4648C41.8886 40.4648 25.3594 7.40163 24.9436 6.57439C24.5718 5.83382 23.6275 5.82375 23.1495 6.5811Z" fill="#2681FF"/>
</g>
<defs>
<linearGradient id="paint0_linear_41_507" x1="15.1607" y1="19.4404" x2="2.79121" y2="32.7274" gradientUnits="userSpaceOnUse">
<stop stop-color="#0052CC"/>
<stop offset="0.923" stop-color="#2684FF"/>
</linearGradient>
<clipPath id="clip0_41_507">
<rect width="48" height="48" fill="white" transform="translate(0 0.00393677)"/>
</clipPath>
</defs>
</svg>
