<svg width="48" height="48" viewBox="0 0 48 48" fill="none" xmlns="http://www.w3.org/2000/svg">
<g clip-path="url(#clip0_41_461)">
<rect width="48" height="48" transform="translate(0 0.00193787)" fill="white" fill-opacity="0.01"/>
<path d="M38.5388 22.617C40.4504 22.617 42 21.0674 42 19.1558C42 17.2442 40.4502 15.6945 38.5386 15.6945C36.6269 15.6945 35.077 17.2443 35.077 19.1561V22.617H38.5388ZM28.8462 22.617C30.7579 22.617 32.3077 21.0672 32.3077 19.1555V9.46377C32.3077 7.55201 30.7579 6.00223 28.8462 6.00223C26.9344 6.00223 25.3846 7.55201 25.3846 9.46377V19.1555C25.3846 21.0672 26.9344 22.617 28.8462 22.617Z" fill="#2EB67D"/>
<path d="M9.46121 25.3869C7.54962 25.3869 5.99997 26.9365 5.99997 28.8481C5.99997 30.7597 7.54977 32.3093 9.46136 32.3093C11.3731 32.3093 12.923 30.7596 12.923 28.8478V25.3869H9.46121ZM19.1538 25.3869C17.2421 25.3869 15.6923 26.9366 15.6923 28.8484V38.5401C15.6923 40.4519 17.2421 42.0016 19.1538 42.0016C21.0656 42.0016 22.6154 40.4519 22.6154 38.5401V28.8484C22.6154 26.9366 21.0656 25.3869 19.1538 25.3869Z" fill="#E01E5A"/>
<path d="M25.3849 38.5407C25.3849 40.4523 26.9346 42.0019 28.8461 42.0019C30.7577 42.0019 32.3074 40.4521 32.3074 38.5405C32.3074 36.6288 30.7576 35.0789 28.8458 35.0789L25.3849 35.0789L25.3849 38.5407ZM25.3849 28.8481C25.3849 30.7598 26.9347 32.3096 28.8464 32.3096L38.5382 32.3096C40.4499 32.3096 41.9997 30.7598 41.9997 28.8481C41.9997 26.9363 40.4499 25.3866 38.5382 25.3866L28.8464 25.3866C26.9347 25.3866 25.3849 26.9363 25.3849 28.8481Z" fill="#ECB22E"/>
<path d="M22.615 9.46318C22.615 7.55159 21.0654 6.00194 19.1538 6.00194C17.2422 6.00194 15.6926 7.55174 15.6926 9.46333C15.6926 11.3751 17.2423 12.925 19.1541 12.925L22.615 12.925L22.615 9.46318ZM22.615 19.1558C22.615 17.244 21.0653 15.6942 19.1535 15.6942L9.46178 15.6942C7.55003 15.6942 6.00024 17.244 6.00024 19.1558C6.00024 21.0675 7.55003 22.6173 9.46178 22.6173L19.1535 22.6173C21.0653 22.6173 22.615 21.0675 22.615 19.1558Z" fill="#36C5F0"/>
</g>
<defs>
<clipPath id="clip0_41_461">
<rect width="48" height="48" fill="white" transform="translate(0 0.00193787)"/>
</clipPath>
</defs>
</svg>
