<svg width="170" height="32" viewBox="0 0 170 32" fill="none" xmlns="http://www.w3.org/2000/svg">
<rect y="9.15527e-05" width="32" height="32" rx="8" fill="white"/>
<path d="M25.4286 15.7858H16.5714C16.3742 15.7858 16.2143 15.6259 16.2143 15.4287V6.57152C16.2143 6.371 16.375 6.21972 16.5594 6.23013C21.5173 6.51021 25.49 10.4916 25.7699 15.4408C25.7804 15.6251 25.6291 15.7858 25.4286 15.7858Z" fill="url(#paint0_linear_1_493)" stroke="white" stroke-width="0.428571"/>
<path d="M25.4286 25.7858H16.5714C16.3709 25.7858 16.2196 25.6251 16.2301 25.4408C16.51 20.4916 20.4827 16.5102 25.4406 16.2301C25.625 16.2197 25.7857 16.371 25.7857 16.5715V25.4287C25.7857 25.6259 25.6258 25.7858 25.4286 25.7858Z" fill="url(#paint1_linear_1_493)" stroke="white" stroke-width="0.428571"/>
<path d="M15.7857 16.5715V25.4287C15.7857 25.6292 15.625 25.7805 15.4406 25.7701C10.4822 25.4906 6.50944 21.5179 6.23001 16.5595C6.21962 16.3751 6.37092 16.2144 6.57143 16.2144H15.4286C15.6258 16.2144 15.7857 16.3743 15.7857 16.5715Z" fill="#0168FF" stroke="white" stroke-width="0.428571"/>
<path d="M6.21429 15.4287V6.57152C6.21429 6.37428 6.37418 6.21438 6.57143 6.21438H15.4286C15.6291 6.21438 15.7804 6.37513 15.77 6.55948C15.4906 11.5179 11.5178 15.4906 6.55939 15.7701C6.37504 15.7805 6.21429 15.6292 6.21429 15.4287Z" fill="url(#paint2_linear_1_493)" stroke="white" stroke-width="0.428571"/>
<path d="M51.679 13.6848H49.4631C49.3778 13.2113 49.2192 12.7946 48.9872 12.4348C48.7552 12.0749 48.4711 11.7695 48.1349 11.5186C47.7988 11.2676 47.4223 11.0782 47.0057 10.9504C46.5938 10.8225 46.1558 10.7586 45.6918 10.7586C44.8537 10.7586 44.1032 10.9693 43.4403 11.3907C42.7822 11.8121 42.2614 12.43 41.8778 13.2444C41.4991 14.0588 41.3097 15.0531 41.3097 16.2274C41.3097 17.4111 41.4991 18.4101 41.8778 19.2245C42.2614 20.0389 42.7846 20.6544 43.4474 21.0711C44.1103 21.4878 44.8561 21.6961 45.6847 21.6961C46.1439 21.6961 46.5795 21.6346 46.9915 21.5115C47.4081 21.3836 47.7846 21.1966 48.1207 20.9504C48.4569 20.7042 48.741 20.4035 48.973 20.0484C49.2098 19.6885 49.3731 19.2766 49.4631 18.8126L51.679 18.8197C51.5606 19.5347 51.331 20.1928 50.9901 20.7941C50.6539 21.3907 50.2206 21.9068 49.6903 22.3424C49.1648 22.7733 48.5634 23.1071 47.8864 23.3438C47.2093 23.5806 46.4706 23.699 45.6705 23.699C44.411 23.699 43.2888 23.4007 42.304 22.8041C41.3191 22.2027 40.5426 21.3434 39.9744 20.2259C39.411 19.1085 39.1293 17.7757 39.1293 16.2274C39.1293 14.6743 39.4134 13.3415 39.9815 12.2288C40.5497 11.1114 41.3262 10.2544 42.3111 9.65776C43.2959 9.05644 44.4157 8.75577 45.6705 8.75577C46.4422 8.75577 47.1619 8.86704 47.8295 9.08958C48.5019 9.30738 49.1056 9.62935 49.6406 10.0555C50.1757 10.4769 50.6184 10.993 50.9688 11.6038C51.3191 12.2098 51.5559 12.9035 51.679 13.6848ZM57.5298 23.7203C56.507 23.7203 55.6145 23.4859 54.8522 23.0171C54.0899 22.5484 53.498 21.8926 53.0766 21.0498C52.6552 20.207 52.4445 19.2222 52.4445 18.0953C52.4445 16.9636 52.6552 15.974 53.0766 15.1265C53.498 14.279 54.0899 13.6208 54.8522 13.1521C55.6145 12.6833 56.507 12.449 57.5298 12.449C58.5525 12.449 59.445 12.6833 60.2073 13.1521C60.9696 13.6208 61.5615 14.279 61.9829 15.1265C62.4043 15.974 62.615 16.9636 62.615 18.0953C62.615 19.2222 62.4043 20.207 61.9829 21.0498C61.5615 21.8926 60.9696 22.5484 60.2073 23.0171C59.445 23.4859 58.5525 23.7203 57.5298 23.7203ZM57.5369 21.9376C58.1997 21.9376 58.749 21.7624 59.1846 21.412C59.6202 21.0616 59.9422 20.5953 60.1505 20.0129C60.3636 19.4305 60.4701 18.7889 60.4701 18.0882C60.4701 17.3921 60.3636 16.7529 60.1505 16.1705C59.9422 15.5834 59.6202 15.1123 59.1846 14.7572C58.749 14.4021 58.1997 14.2245 57.5369 14.2245C56.8692 14.2245 56.3153 14.4021 55.8749 14.7572C55.4393 15.1123 55.115 15.5834 54.9019 16.1705C54.6936 16.7529 54.5894 17.3921 54.5894 18.0882C54.5894 18.7889 54.6936 19.4305 54.9019 20.0129C55.115 20.5953 55.4393 21.0616 55.8749 21.412C56.3153 21.7624 56.8692 21.9376 57.5369 21.9376ZM63.7854 23.5001V12.591H65.8237V14.3666H65.9587C66.1859 13.7652 66.5576 13.2965 67.0737 12.9603C67.5898 12.6194 68.2077 12.449 68.9274 12.449C69.6566 12.449 70.2674 12.6194 70.7598 12.9603C71.257 13.3012 71.6239 13.77 71.8607 14.3666H71.9743C72.2347 13.7842 72.649 13.3202 73.2172 12.9745C73.7854 12.6241 74.4625 12.449 75.2484 12.449C76.238 12.449 77.0453 12.7591 77.6703 13.3794C78.3 13.9996 78.6149 14.9348 78.6149 16.1848V23.5001H76.4913V16.3836C76.4913 15.645 76.2901 15.1099 75.8876 14.7785C75.4852 14.4471 75.0046 14.2813 74.4459 14.2813C73.7546 14.2813 73.2172 14.4944 72.8337 14.9205C72.4501 15.3419 72.2584 15.8841 72.2584 16.547V23.5001H70.1419V16.2487C70.1419 15.6568 69.9572 15.181 69.5879 14.8211C69.2186 14.4613 68.738 14.2813 68.1462 14.2813C67.7437 14.2813 67.372 14.3879 67.0311 14.6009C66.6949 14.8093 66.4227 15.1005 66.2143 15.4745C66.0107 15.8486 65.9089 16.2818 65.9089 16.7742V23.5001H63.7854ZM80.2612 27.591V12.591H82.335V14.3595H82.5126C82.6357 14.1322 82.8132 13.8694 83.0452 13.5711C83.2773 13.2728 83.5992 13.0124 84.0112 12.7899C84.4231 12.5626 84.9676 12.449 85.6447 12.449C86.5254 12.449 87.3113 12.6715 88.0026 13.1166C88.6939 13.5616 89.2361 14.2032 89.6291 15.0413C90.0268 15.8794 90.2256 16.8879 90.2256 18.0669C90.2256 19.2458 90.0291 20.2567 89.6362 21.0995C89.2432 21.9376 88.7034 22.5839 88.0168 23.0384C87.3303 23.4883 86.5467 23.7132 85.666 23.7132C85.0031 23.7132 84.461 23.6019 84.0396 23.3794C83.6229 23.1568 83.2962 22.8964 83.0594 22.5981C82.8227 22.2998 82.6404 22.0347 82.5126 21.8026H82.3847V27.591H80.2612ZM82.3421 18.0455C82.3421 18.8126 82.4534 19.4849 82.6759 20.0626C82.8985 20.6402 83.2204 21.0924 83.6418 21.4191C84.0632 21.7411 84.5793 21.9021 85.1901 21.9021C85.8246 21.9021 86.3549 21.734 86.781 21.3978C87.2072 21.0569 87.5291 20.5953 87.7469 20.0129C87.9695 19.4305 88.0808 18.7747 88.0808 18.0455C88.0808 17.3258 87.9719 16.6795 87.7541 16.1066C87.541 15.5337 87.219 15.0815 86.7881 14.7501C86.362 14.4187 85.8293 14.2529 85.1901 14.2529C84.5746 14.2529 84.0538 14.4115 83.6276 14.7288C83.2062 15.046 82.8866 15.4887 82.6688 16.0569C82.451 16.6251 82.3421 17.288 82.3421 18.0455ZM95.4887 23.7132C94.608 23.7132 93.822 23.4883 93.1308 23.0384C92.4442 22.5839 91.9044 21.9376 91.5114 21.0995C91.1232 20.2567 90.929 19.2458 90.929 18.0669C90.929 16.8879 91.1255 15.8794 91.5185 15.0413C91.9163 14.2032 92.4608 13.5616 93.1521 13.1166C93.8433 12.6715 94.627 12.449 95.5029 12.449C96.18 12.449 96.7245 12.5626 97.1364 12.7899C97.5531 13.0124 97.8751 13.2728 98.1023 13.5711C98.3344 13.8694 98.5143 14.1322 98.6421 14.3595H98.77V12.591H100.894V23.5001H98.8197V21.8026H98.6421C98.5143 22.0347 98.3296 22.2998 98.0881 22.5981C97.8514 22.8964 97.5247 23.1568 97.108 23.3794C96.6914 23.6019 96.1516 23.7132 95.4887 23.7132ZM95.9575 21.9021C96.5683 21.9021 97.0844 21.7411 97.5058 21.4191C97.9319 21.0924 98.2539 20.6402 98.4717 20.0626C98.6942 19.4849 98.8055 18.8126 98.8055 18.0455C98.8055 17.288 98.6966 16.6251 98.4788 16.0569C98.261 15.4887 97.9414 15.046 97.52 14.7288C97.0986 14.4115 96.5777 14.2529 95.9575 14.2529C95.3183 14.2529 94.7856 14.4187 94.3594 14.7501C93.9333 15.0815 93.6113 15.5337 93.3935 16.1066C93.1805 16.6795 93.0739 17.3258 93.0739 18.0455C93.0739 18.7747 93.1828 19.4305 93.4006 20.0129C93.6184 20.5953 93.9404 21.0569 94.3665 21.3978C94.7974 21.734 95.3277 21.9021 95.9575 21.9021ZM104.848 17.0228V23.5001H102.724V12.591H104.763V14.3666H104.898C105.149 13.7889 105.542 13.3249 106.077 12.9745C106.616 12.6241 107.296 12.449 108.115 12.449C108.858 12.449 109.509 12.6052 110.068 12.9177C110.627 13.2255 111.06 13.6848 111.368 14.2955C111.676 14.9063 111.83 15.6615 111.83 16.5612V23.5001H109.706V16.8169C109.706 16.0261 109.5 15.4082 109.088 14.9632C108.676 14.5133 108.11 14.2884 107.391 14.2884C106.898 14.2884 106.46 14.395 106.077 14.608C105.698 14.8211 105.397 15.1336 105.175 15.5455C104.957 15.9527 104.848 16.4452 104.848 17.0228ZM114.429 27.591C114.112 27.591 113.823 27.565 113.563 27.5129C113.302 27.4655 113.108 27.4134 112.98 27.3566L113.492 25.6166C113.88 25.7207 114.226 25.7657 114.529 25.7515C114.832 25.7373 115.099 25.6237 115.331 25.4106C115.568 25.1975 115.776 24.8495 115.956 24.3666L116.219 23.6421L112.228 12.591H114.5L117.263 21.0569H117.377L120.139 12.591H122.419L117.924 24.9561C117.715 25.5242 117.45 26.0048 117.128 26.3978C116.806 26.7955 116.423 27.0938 115.978 27.2927C115.532 27.4916 115.016 27.591 114.429 27.591ZM139.559 13.6848H137.344C137.258 13.2113 137.1 12.7946 136.868 12.4348C136.636 12.0749 136.352 11.7695 136.015 11.5186C135.679 11.2676 135.303 11.0782 134.886 10.9504C134.474 10.8225 134.036 10.7586 133.572 10.7586C132.734 10.7586 131.984 10.9693 131.321 11.3907C130.663 11.8121 130.142 12.43 129.758 13.2444C129.38 14.0588 129.19 15.0531 129.19 16.2274C129.19 17.4111 129.38 18.4101 129.758 19.2245C130.142 20.0389 130.665 20.6544 131.328 21.0711C131.991 21.4878 132.737 21.6961 133.565 21.6961C134.024 21.6961 134.46 21.6346 134.872 21.5115C135.289 21.3836 135.665 21.1966 136.001 20.9504C136.337 20.7042 136.621 20.4035 136.853 20.0484C137.09 19.6885 137.254 19.2766 137.344 18.8126L139.559 18.8197C139.441 19.5347 139.211 20.1928 138.871 20.7941C138.534 21.3907 138.101 21.9068 137.571 22.3424C137.045 22.7733 136.444 23.1071 135.767 23.3438C135.09 23.5806 134.351 23.699 133.551 23.699C132.291 23.699 131.169 23.4007 130.184 22.8041C129.2 22.2027 128.423 21.3434 127.855 20.2259C127.291 19.1085 127.01 17.7757 127.01 16.2274C127.01 14.6743 127.294 13.3415 127.862 12.2288C128.43 11.1114 129.207 10.2544 130.192 9.65776C131.176 9.05644 132.296 8.75577 133.551 8.75577C134.323 8.75577 135.042 8.86704 135.71 9.08958C136.382 9.30738 136.986 9.62935 137.521 10.0555C138.056 10.4769 138.499 10.993 138.849 11.6038C139.2 12.2098 139.436 12.9035 139.559 13.6848ZM140.986 23.5001V8.95464H146.17C147.297 8.95464 148.232 9.14877 148.976 9.53702C149.724 9.92528 150.282 10.4627 150.652 11.1492C151.021 11.8311 151.206 12.6194 151.206 13.5143C151.206 14.4044 151.019 15.1881 150.645 15.8651C150.275 16.5375 149.717 17.0607 148.968 17.4348C148.225 17.8088 147.29 17.9958 146.163 17.9958H142.236V16.1066H145.964C146.674 16.1066 147.252 16.0048 147.697 15.8012C148.147 15.5976 148.476 15.3017 148.684 14.9134C148.893 14.5252 148.997 14.0588 148.997 13.5143C148.997 12.9651 148.89 12.4892 148.677 12.0867C148.469 11.6843 148.14 11.3765 147.69 11.1634C147.245 10.9456 146.66 10.8367 145.936 10.8367H143.18V23.5001H140.986ZM148.166 16.9376L151.76 23.5001H149.26L145.737 16.9376H148.166ZM152.676 8.95464H155.339L159.97 20.2615H160.141L164.771 8.95464H167.435V23.5001H165.347V12.9745H165.212L160.922 23.4788H159.189L154.899 12.9674H154.764V23.5001H152.676V8.95464Z" fill="#001D47"/>
<defs>
<linearGradient id="paint0_linear_1_493" x1="26" y1="6.00009" x2="16" y2="6.00009" gradientUnits="userSpaceOnUse">
<stop stop-color="#C5E4FF"/>
<stop offset="1" stop-color="#CAEFFF"/>
</linearGradient>
<linearGradient id="paint1_linear_1_493" x1="26" y1="16.0001" x2="16" y2="16.0001" gradientUnits="userSpaceOnUse">
<stop stop-color="#4EACFF"/>
<stop offset="1" stop-color="#5AC6FF"/>
</linearGradient>
<linearGradient id="paint2_linear_1_493" x1="16" y1="6.00009" x2="6" y2="6.00009" gradientUnits="userSpaceOnUse">
<stop stop-color="#C7E7FF"/>
<stop offset="1" stop-color="#C8E5FF"/>
</linearGradient>
</defs>
</svg>
